<?xml version="1.0" encoding="UTF-8"?>
<svg version="1.1" xmlns="http://www.w3.org/2000/svg" width="184" height="159">
<path d="M0 0 C60.72 0 121.44 0 184 0 C184 52.47 184 104.94 184 159 C123.28 159 62.56 159 0 159 C0 106.53 0 54.06 0 0 Z " fill="none" transform="translate(0,0)"/>
<path d="M0 0 C0 8.25 0 16.5 0 25 C-1.959375 25.515625 -3.91875 26.03125 -5.9375 26.5625 C-17.58325078 30.19152332 -24.43720933 37.32734273 -30.0625 48.01953125 C-34.31148307 57.39589293 -34.3845815 68.57194578 -31.375 78.3125 C-27.10969495 89.52756783 -20.01598567 97.92224763 -9.15234375 103.17578125 C-6.17075472 104.31755128 -3.06988441 105.12289017 0 106 C0 114.25 0 122.5 0 131 C-15.86744832 131 -29.04820615 123.84249296 -40.203125 112.921875 C-47.66983656 105.29306387 -52.47623265 97.03739791 -56 87 C-56.47953125 85.7625 -56.47953125 85.7625 -56.96875 84.5 C-62.1367397 69.18743791 -59.7344967 51.07577856 -53.4921875 36.47265625 C-45.81936545 21.18054346 -32.22848137 7.92224202 -16 2 C-14.55235359 1.58565597 -13.09327948 1.20894082 -11.625 0.875 C-10.91601562 0.70742187 -10.20703125 0.53984375 -9.4765625 0.3671875 C-6.34952126 -0.09644322 -3.16122451 0 0 0 Z " fill="#1E334A" transform="translate(90,15)"/>
<path d="M0 0 C17.2776148 0 31.63548064 7.027117 44 19 C52.05940608 28.54709741 52.05940608 28.54709741 53 34 C52.01 34.36351562 51.02 34.72703125 50 35.1015625 C38.95172709 39.26285475 29.92779125 44.02047285 23 54 C22.01 56.31 21.02 58.62 20 61 C13.4 61 6.8 61 0 61 C0 40.87 0 20.74 0 0 Z " fill="#BF9F5D" transform="translate(97,15)"/>
<path d="M0 0 C6.6 0 13.2 0 20 0 C20.804375 1.65 21.60875 3.3 22.4375 5 C27.93396142 15.01462994 36.52910585 21.37772969 47.41015625 24.74609375 C49.2602038 25.21920997 51.12884244 25.61883827 53 26 C47.89211637 40.01522749 36.24985831 49.24158471 23.1875 55.5 C14.90873279 59.0182276 9.28567311 60 0 60 C0 40.2 0 20.4 0 0 Z " fill="#BEA05D" transform="translate(97,86)"/>
<path d="M0 0 C3.77545388 1.09068668 6.47043472 1.9083091 9 5 C7.02 5.33 5.04 5.66 3 6 C2.01 4.02 1.02 2.04 0 0 Z " fill="#BEA56C" transform="translate(119,20)"/>
</svg>
